<svg width="15" height="13" viewBox="0 0 15 13" fill="none" xmlns="http://www.w3.org/2000/svg">
<path d="M12.9259 0.826042C11.0559 -0.448958 8.74674 0.146042 7.50007 1.60521C6.2534 0.146042 3.94424 -0.456041 2.07424 0.826042C1.08257 1.50604 0.459236 2.65354 0.416736 3.86479C0.31757 6.61312 2.75424 8.81604 6.47299 12.1948L6.54382 12.2585C7.08215 12.7473 7.9109 12.7473 8.44924 12.2515L8.52715 12.1806C12.2459 8.80896 14.6755 6.60604 14.5834 3.85771C14.5409 2.65354 13.9176 1.50604 12.9259 0.826042ZM7.5709 11.1394L7.50007 11.2102L7.42924 11.1394C4.05757 8.08646 1.8334 6.06771 1.8334 4.02063C1.8334 2.60396 2.8959 1.54146 4.31257 1.54146C5.4034 1.54146 6.4659 2.24271 6.84132 3.21313H8.1659C8.53424 2.24271 9.59674 1.54146 10.6876 1.54146C12.1042 1.54146 13.1667 2.60396 13.1667 4.02063C13.1667 6.06771 10.9426 8.08646 7.5709 11.1394Z" fill="#828282"/>
</svg>
