<svg width="60" height="60" viewBox="0 0 60 60" fill="none" xmlns="http://www.w3.org/2000/svg">
<rect width="60" height="60" rx="8" fill="#F5F5F5"/>
<g clip-path="url(#clip0_57_3645)">
<path d="M43.3334 25.9994H36.9467L31.1067 17.2527C30.8534 16.8794 30.4267 16.6927 30 16.6927C29.5734 16.6927 29.1467 16.8794 28.8934 17.2661L23.0534 25.9994H16.6667C15.9334 25.9994 15.3334 26.5994 15.3334 27.3327C15.3334 27.4527 15.3467 27.5727 15.3867 27.6927L18.7734 40.0527C19.08 41.1727 20.1067 41.9994 21.3334 41.9994H38.6667C39.8934 41.9994 40.92 41.1727 41.24 40.0527L44.6267 27.6927L44.6667 27.3327C44.6667 26.5994 44.0667 25.9994 43.3334 25.9994ZM30 20.3994L33.7334 25.9994H26.2667L30 20.3994ZM38.6667 39.3327L21.3467 39.3461L18.4134 28.6661H41.6L38.6667 39.3327ZM30 31.3327C28.5334 31.3327 27.3334 32.5327 27.3334 33.9994C27.3334 35.4661 28.5334 36.6661 30 36.6661C31.4667 36.6661 32.6667 35.4661 32.6667 33.9994C32.6667 32.5327 31.4667 31.3327 30 31.3327Z" fill="url(#paint0_linear_57_3645)"/>
</g>
<defs>
<linearGradient id="paint0_linear_57_3645" x1="51.0587" y1="50.435" x2="5.64969" y2="39.9534" gradientUnits="userSpaceOnUse">
<stop stop-color="#270096"/>
<stop offset="1" stop-color="#EA00B7"/>
</linearGradient>
<clipPath id="clip0_57_3645">
<rect width="32" height="32" fill="white" transform="translate(14 14)"/>
</clipPath>
</defs>
</svg>
