<svg width="272" height="32" viewBox="0 0 272 32" fill="none" xmlns="http://www.w3.org/2000/svg">
<path d="M11.2111 2.25888C12.3621 2.41236 13.3342 2.4891 14.1271 2.4891C14.562 2.4891 14.9585 2.47631 15.3166 2.45073C15.6747 2.42515 16.1224 2.38678 16.6595 2.33562C17.12 2.28446 17.6955 2.2333 18.3862 2.18215C19.0768 2.13099 19.8826 2.04146 20.8034 1.91356C20.4709 2.16936 20.2151 2.46352 20.036 2.79606C19.857 3.12859 19.7163 3.44834 19.614 3.75529C19.5117 4.11341 19.4349 4.48431 19.3838 4.86801C19.3582 5.09822 19.3454 5.57145 19.3454 6.28768C19.371 7.00391 19.3838 7.87361 19.3838 8.8968C19.4093 9.91999 19.4093 11.0583 19.3838 12.3117C19.3838 13.5651 19.3582 14.8441 19.307 16.1486C19.2559 17.4276 19.1791 18.7066 19.0768 19.9856C18.9745 21.239 18.821 22.4028 18.6164 23.4772C18.4373 24.526 18.1943 25.4468 17.8873 26.2398C17.606 27.0072 17.2606 27.5444 16.8514 27.8513C16.0072 28.4908 15.0864 29.0152 14.0888 29.4245C13.0912 29.8082 12.1064 30.0639 11.1343 30.1918C10.1623 30.3197 9.24143 30.3197 8.37172 30.1918C7.5276 30.0895 6.81137 29.8337 6.22303 29.4245C5.83934 29.1431 5.48122 28.7466 5.14869 28.235C4.81615 27.7234 4.5092 27.1607 4.22782 26.5467C3.97203 25.9073 3.72902 25.255 3.4988 24.5899C3.29417 23.8993 3.11511 23.2726 2.96163 22.7098C2.78257 22.1215 2.64189 21.6099 2.53957 21.175C2.41167 20.7146 2.32214 20.4076 2.27098 20.2542C2.16866 20.0239 2.00239 19.7937 1.77218 19.5635C1.54196 19.3333 1.29895 19.1287 1.04316 18.9496C0.787361 18.7705 0.569935 18.6426 0.390877 18.5659C0.18624 18.4636 0.0711316 18.438 0.045552 18.4892C0.045552 18.5403 0.250189 18.5531 0.659463 18.5275C1.04316 18.4764 1.51638 18.4252 2.07913 18.3741C2.64189 18.3229 3.23022 18.2845 3.84413 18.2589C4.45804 18.2078 4.96963 18.195 5.37891 18.2206C5.71144 18.2206 6.1463 18.2334 6.68347 18.2589C7.1439 18.2845 7.73223 18.3101 8.44846 18.3357C9.16469 18.3357 10.0472 18.3613 11.096 18.4124C10.4309 18.6171 9.89371 18.8473 9.48444 19.1031C9.10074 19.3333 8.80658 19.5507 8.60194 19.7554C8.34614 20.0112 8.16709 20.2669 8.06477 20.5227C7.98803 20.753 7.92408 21.2262 7.87292 21.9424C7.84734 22.6331 7.8985 23.3493 8.0264 24.0911C8.1543 24.8329 8.3973 25.5108 8.75542 26.1247C9.11353 26.7386 9.67629 27.0839 10.4437 27.1607C11.2622 27.2374 11.9273 27.0967 12.4389 26.7386C12.9761 26.3549 13.3981 25.8433 13.7051 25.2038C14.012 24.5643 14.2423 23.8481 14.3957 23.0551C14.5492 22.2622 14.6771 21.482 14.7794 20.7146C14.8562 20.203 14.8817 19.4868 14.8562 18.5659C14.8306 17.645 14.7666 16.6474 14.6643 15.5731C14.562 14.4987 14.4341 13.386 14.2806 12.2349C14.1527 11.0839 14.0248 10.0223 13.8969 9.05028C13.769 8.07825 13.6411 7.24691 13.5132 6.55626C13.4109 5.86561 13.347 5.43076 13.3214 5.2517C13.2191 4.91917 13.0784 4.57384 12.8993 4.21573C12.7458 3.93435 12.5284 3.61461 12.247 3.25649C11.9912 2.89838 11.6459 2.56584 11.2111 2.25888ZM21.637 12.3501C22.3021 12.4779 22.8776 12.5803 23.3636 12.657C23.8752 12.7082 24.3101 12.7593 24.6682 12.8105C25.0774 12.8616 25.4356 12.9 25.7425 12.9256C26.0495 12.9512 26.4076 12.9768 26.8169 13.0023C27.5075 13.0279 28.4795 13.0279 29.7329 13.0023C28.9911 12.9512 28.4028 13.143 27.9679 13.5779C27.5587 13.9871 27.2517 14.4604 27.0471 14.9975C26.7913 15.637 26.6506 16.3788 26.625 17.223C26.5739 18.3485 26.5994 19.3717 26.7018 20.2925C26.8297 21.1878 27.0471 21.9552 27.354 22.5947C27.6866 23.2086 28.1214 23.669 28.6586 23.976C29.1958 24.2574 29.8864 24.3341 30.7305 24.2062C31.5747 24.0783 32.2142 23.7841 32.649 23.3237C33.1095 22.8377 33.442 22.2494 33.6466 21.5587C33.8513 20.8425 33.9664 20.0367 33.992 19.1414C34.0431 18.2462 34.0815 17.3125 34.1071 16.3405C34.1071 15.3684 34.0943 14.6778 34.0687 14.2685C34.0687 13.8337 34.0559 13.5523 34.0303 13.4244C34.0047 13.2965 33.9664 13.2453 33.9152 13.2709C33.8641 13.2709 33.8001 13.207 33.7234 13.0791C33.6722 12.9768 33.5955 12.8744 33.4931 12.7721C33.4164 12.6698 33.3141 12.5547 33.1862 12.4268C33.0583 12.2733 32.9176 12.1198 32.7641 11.9664C33.4292 11.9919 34.0175 12.0175 34.5291 12.0431C35.0663 12.0431 35.5139 12.0559 35.8721 12.0815C36.2813 12.107 36.6394 12.1326 36.9464 12.1582C37.2278 12.1838 37.5987 12.2222 38.0591 12.2733C38.4428 12.3245 38.9416 12.3756 39.5555 12.4268C40.1694 12.4779 40.8985 12.5547 41.7426 12.657C41.1542 12.7849 40.681 12.9768 40.3229 13.2325C39.9648 13.4883 39.6834 13.7441 39.4788 13.9999C39.2486 14.2813 39.0823 14.5883 38.98 14.9208C38.9032 15.3557 38.9032 16.0207 38.98 16.916C39.0311 17.709 39.159 18.7961 39.3637 20.1774C39.5683 21.5587 39.8881 23.3749 40.3229 25.6259L37.2917 27.4292L36.6778 22.3261C35.936 23.5795 35.143 24.5515 34.2989 25.2422C33.4804 25.9073 32.713 26.3933 31.9967 26.7002C31.1526 27.0583 30.3341 27.263 29.5411 27.3141C28.4923 27.3141 27.5843 27.2502 26.8169 27.1223C26.0751 26.9688 25.4356 26.777 24.8984 26.5467C24.3612 26.3165 23.9264 26.0607 23.5938 25.7794C23.2869 25.4724 23.0567 25.1654 22.9032 24.8585C22.5451 24.219 22.3532 23.4005 22.3276 22.4028C22.3021 21.3797 22.3404 20.3693 22.4427 19.3717C22.5451 18.3485 22.6602 17.4148 22.7881 16.5707C22.916 15.7266 22.9543 15.151 22.9032 14.8441C22.852 14.6138 22.7753 14.3581 22.673 14.0767C22.5706 13.8465 22.4427 13.5907 22.2893 13.3093C22.1358 13.0023 21.9184 12.6826 21.637 12.3501ZM42.6913 31.0743C42.947 30.6907 43.1517 30.3325 43.3052 30C43.4586 29.6675 43.5865 29.3861 43.6889 29.1559C43.7912 28.8745 43.8679 28.6187 43.9191 28.3885C43.9447 28.235 43.9574 27.7874 43.9574 27.0456C43.9574 26.3037 43.9319 25.3701 43.8807 24.2446C43.8551 23.1191 43.8168 21.8529 43.7656 20.446C43.74 19.0391 43.6889 17.6067 43.6121 16.1486C43.561 14.6906 43.497 13.2709 43.4203 11.8896C43.3691 10.5083 43.318 9.2677 43.2668 8.16778C43.2156 7.04228 43.1645 6.12141 43.1133 5.40518C43.0622 4.68895 43.0238 4.27968 42.9982 4.17736C42.947 4.02388 42.8575 3.8704 42.7296 3.71692C42.4738 3.40997 42.039 3.1158 41.4251 2.83443C42.7296 2.50189 43.7272 2.2333 44.4179 2.02867C44.8272 1.92635 45.1853 1.82403 45.4922 1.72171C45.7736 1.61939 46.055 1.51707 46.3363 1.41476C46.5666 1.31244 46.8224 1.19733 47.1037 1.06943C47.3851 0.915954 47.6409 0.749686 47.8711 0.570628C47.7432 1.31244 47.6409 2.02867 47.5642 2.71932C47.4874 3.40997 47.4235 4.04946 47.3723 4.63779C47.3212 5.30286 47.2956 5.94235 47.2956 6.55626C47.1677 7.80967 47.0909 9.17818 47.0654 10.6618C47.0654 12.1198 47.0782 13.6035 47.1037 15.1127C47.1293 16.6219 47.1805 18.0927 47.2572 19.5251C47.334 20.9576 47.4107 22.2622 47.4874 23.4388C47.5898 24.5899 47.6793 25.5747 47.756 26.3933C47.8583 27.1862 47.9351 27.6978 47.9862 27.928C48.0886 28.3117 48.1909 28.6826 48.2932 29.0408C48.3955 29.3477 48.5106 29.6675 48.6385 30C48.7664 30.3581 48.9199 30.6395 49.0989 30.8441H45.3771C45.0446 30.8441 44.7248 30.8569 44.4179 30.8825C44.1365 30.9081 43.8423 30.9337 43.5354 30.9592C43.2284 30.9848 42.947 31.0232 42.6913 31.0743ZM59.9469 23.8225C60.6632 23.8225 61.3282 23.7458 61.9421 23.5923C62.4537 23.4644 62.9398 23.2598 63.4002 22.9784C63.8862 22.6714 64.2059 22.2238 64.3594 21.6355C64.871 21.7378 65.3059 21.8273 65.664 21.904C66.0221 21.9552 66.3291 22.0064 66.5849 22.0575C66.8662 22.1343 67.1092 22.1854 67.3139 22.211C67.5185 22.2622 67.7615 22.3133 68.0429 22.3645C68.2987 22.4156 68.6056 22.4796 68.9638 22.5563C69.3475 22.6075 69.7951 22.6842 70.3067 22.7865C69.923 22.7354 69.5265 22.7738 69.1172 22.9017C68.7335 23.0295 68.3626 23.1702 68.0045 23.3237C67.5952 23.5028 67.2116 23.7202 66.8534 23.976C66.6232 24.1295 66.3546 24.3597 66.0477 24.6666C65.7663 24.9736 65.357 25.2678 64.8199 25.5491C64.2827 25.8305 63.5665 26.0735 62.6712 26.2782C61.8015 26.4572 60.676 26.5212 59.2947 26.47C57.632 26.4189 56.2379 26.1247 55.1124 25.5875C53.9869 25.0248 53.0788 24.3469 52.3882 23.5539C51.6975 22.7354 51.1987 21.8529 50.8917 20.9064C50.5848 19.96 50.4185 19.0775 50.3929 18.2589C50.3674 17.4404 50.6104 16.5835 51.122 15.6882C51.6336 14.7929 52.3498 13.9744 53.2707 13.2325C54.2171 12.4907 55.3554 11.8896 56.6855 11.4292C58.0157 10.9432 59.4737 10.7002 61.0597 10.7002C61.9805 10.7002 62.8246 10.8153 63.592 11.0455C64.385 11.2501 65.1012 11.5315 65.7407 11.8896C66.4058 12.2477 66.9813 12.657 67.4673 13.1174C67.9534 13.5523 68.3626 13.9999 68.6952 14.4604C69.0277 14.9464 69.3091 15.458 69.5393 15.9951C69.7439 16.4556 69.9102 16.98 70.0381 17.5683C70.166 18.1566 70.2044 18.7577 70.1532 19.3717C68.2092 19.4228 66.636 19.4612 65.4338 19.4868C64.2571 19.5123 63.3362 19.5251 62.6712 19.5251H60.9445H59.64C59.1795 19.5251 58.5784 19.5379 57.8366 19.5635C57.0948 19.5891 56.1867 19.6275 55.1124 19.6786C55.2403 20.7018 55.56 21.4948 56.0716 22.0575C56.6088 22.5947 57.1715 23.004 57.7599 23.2853C58.4249 23.5923 59.154 23.7714 59.9469 23.8225ZM56.4937 16.916C57.3122 16.9672 57.9901 17.0055 58.5273 17.0311C59.09 17.0567 59.5505 17.0823 59.9086 17.1079C60.2923 17.1334 60.5992 17.1462 60.8294 17.1462H61.7887C62.4282 17.1462 63.6176 17.1079 65.357 17.0311C65.2803 15.9056 65.0373 15.0487 64.628 14.4604C64.2443 13.872 63.835 13.4372 63.4002 13.1558C62.8886 12.8489 62.3258 12.6698 61.7119 12.6186C60.0493 12.6442 58.8086 12.9895 57.9901 13.6546C57.1971 14.3197 56.6983 15.4068 56.4937 16.916ZM88.0996 8.09104C87.8693 8.65379 87.6647 9.16539 87.4856 9.62582C87.3322 10.0863 87.1915 10.4955 87.0636 10.8536C86.9357 11.2629 86.8206 11.621 86.7183 11.928C86.6159 12.2861 86.5008 12.6954 86.3729 13.1558C86.245 13.5651 86.0788 14.0767 85.8741 14.6906C85.6951 15.2789 85.4776 15.9824 85.2218 16.8009C85.0172 15.5731 84.6463 14.6011 84.1091 13.8848C83.572 13.143 83.022 12.5675 82.4592 12.1582C81.7942 11.6978 81.0779 11.3652 80.3106 11.1606C78.9293 10.9304 77.9316 10.956 77.3177 11.2373C76.7038 11.5187 76.2945 11.8768 76.0899 12.3117C75.9876 12.4907 75.8725 12.721 75.7446 13.0023C75.6423 13.2581 75.5527 13.5267 75.476 13.8081C75.4248 14.0895 75.4121 14.3708 75.4376 14.6522C75.4632 14.9336 75.5783 15.1638 75.783 15.3429C75.9109 15.4708 76.2434 15.6498 76.7806 15.88C77.3177 16.0847 77.9572 16.3277 78.699 16.6091C79.4664 16.8649 80.2722 17.1462 81.1163 17.4532C81.986 17.7601 82.8046 18.0671 83.572 18.3741C84.3393 18.681 85.0044 18.988 85.5672 19.2949C86.1299 19.6019 86.5008 19.8833 86.6799 20.1391C86.8334 20.3948 86.9996 20.7402 87.1787 21.175C87.3833 21.5843 87.524 22.0447 87.6007 22.5563C87.7031 23.0423 87.7286 23.5539 87.6775 24.0911C87.6519 24.6027 87.5112 25.1143 87.2554 25.6259C86.9996 26.1375 86.5904 26.6107 86.0276 27.0456C85.4904 27.4804 84.7614 27.8385 83.8405 28.1199C82.7662 28.4524 81.7302 28.542 80.7326 28.3885C79.735 28.235 78.8141 28.0048 77.97 27.6978C77.1515 27.3909 76.4352 27.0967 75.8213 26.8153C75.2074 26.5084 74.7726 26.3805 74.5168 26.4316C74.2354 26.4828 73.9156 26.6235 73.5575 26.8537C73.1994 27.0839 72.8541 27.3269 72.5216 27.5827C72.2146 27.8129 71.946 28.0304 71.7158 28.235C71.4856 28.4141 71.3705 28.478 71.3705 28.4269C71.3705 28.3757 71.4088 28.2222 71.4856 27.9664C71.5879 27.7106 71.6902 27.4037 71.7925 27.0456C71.9204 26.6619 72.0355 26.2526 72.1379 25.8177C72.2658 25.3573 72.3553 24.9224 72.4064 24.5132C72.4576 24.1806 72.5216 23.7714 72.5983 23.2853C72.6495 22.8505 72.7134 22.3261 72.7901 21.7122C72.8925 21.0727 73.0076 20.3053 73.1355 19.41C73.2634 20.0751 73.4424 20.6506 73.6726 21.1367C73.9284 21.6227 74.1714 22.0447 74.4017 22.4028C74.683 22.8121 74.9516 23.1574 75.2074 23.4388C75.5911 23.7969 76.0388 24.1295 76.5503 24.4364C77.0875 24.7434 77.6247 25.012 78.1619 25.2422C78.699 25.4468 79.2106 25.5747 79.6966 25.6259C80.1827 25.677 80.5919 25.6259 80.9245 25.4724C81.257 25.3189 81.5384 25.0376 81.7686 24.6283C82.0244 24.219 82.2034 23.7714 82.3058 23.2853C82.4081 22.7993 82.4465 22.3389 82.4209 21.904C82.3953 21.4436 82.2802 21.0727 82.0755 20.7913C81.9221 20.6123 81.564 20.3821 81.0012 20.1007C80.464 19.8193 79.8117 19.5123 79.0444 19.1798C78.3026 18.8473 77.5096 18.502 76.6655 18.1438C75.8469 17.7857 75.0667 17.4276 74.3249 17.0695C73.6087 16.6858 73.0076 16.3277 72.5216 15.9951C72.0611 15.637 71.8053 15.3173 71.7542 15.0359C71.703 14.6266 71.6646 14.179 71.6391 13.693C71.6135 13.1814 71.6391 12.6826 71.7158 12.1966C71.8181 11.685 71.9972 11.199 72.253 10.7385C72.5343 10.2781 72.9436 9.89441 73.4808 9.58745C73.8389 9.38281 74.3121 9.22934 74.9005 9.12702C75.4888 9.0247 76.1411 8.97354 76.8573 8.97354C77.5735 8.94796 78.3153 8.97354 79.0827 9.05028C79.8501 9.10144 80.5791 9.17818 81.2698 9.28049C81.986 9.35723 82.6255 9.45955 83.1883 9.58745C83.7766 9.71535 84.2242 9.83046 84.5312 9.93278C84.8893 10.0607 85.273 10.0735 85.6823 9.97114C86.0404 9.89441 86.4241 9.72814 86.8334 9.47234C87.2426 9.21655 87.6647 8.75611 88.0996 8.09104ZM115.474 2.29725C117.111 2.27167 118.454 2.56584 119.503 3.17975C120.577 3.79366 121.447 4.52268 122.112 5.36681C122.777 6.21094 123.289 7.06786 123.647 7.93756C124.005 8.78169 124.286 9.44676 124.491 9.93278C124.542 10.0607 124.645 10.2269 124.798 10.4316C124.926 10.6106 125.105 10.8281 125.335 11.0839C125.591 11.3141 125.911 11.5827 126.294 11.8896C125.501 11.9152 124.798 11.9408 124.184 11.9664C123.57 11.9664 123.046 11.9791 122.611 12.0047C122.125 12.0303 121.69 12.0559 121.306 12.0815C120.923 12.107 120.449 12.1454 119.887 12.1966C119.375 12.2477 118.748 12.2989 118.007 12.3501C117.265 12.4012 116.357 12.4779 115.282 12.5803C115.922 11.8129 116.421 11.135 116.779 10.5467C117.162 9.93278 117.444 9.3956 117.623 8.93517C117.828 8.44916 117.943 8.02709 117.968 7.66898C118.019 7.31086 118.007 7.00391 117.93 6.74811C117.776 6.15978 117.38 5.73771 116.74 5.48192C114.899 4.97033 113.287 5.3796 111.906 6.70974C110.55 8.0143 109.578 10.163 108.99 13.1558C108.708 14.6394 108.44 16.187 108.184 17.7985C107.954 19.3845 107.864 20.8425 107.915 22.1726C107.967 23.4772 108.222 24.5387 108.683 25.3573C109.143 26.1758 109.936 26.5595 111.062 26.5084C112.162 26.4572 113.095 26.2782 113.863 25.9712C114.63 25.6387 115.244 25.255 115.704 24.8201C116.165 24.3597 116.485 23.8737 116.664 23.3621C116.868 22.8249 116.945 22.3261 116.894 21.8657C116.792 21.5076 116.523 21.1239 116.088 20.7146C115.704 20.3565 115.129 19.96 114.361 19.5251C113.594 19.0647 112.494 18.5915 111.062 18.1055C112.417 18.0287 113.53 17.9776 114.4 17.952C115.295 17.9008 115.999 17.8497 116.51 17.7985C117.124 17.7474 117.597 17.709 117.93 17.6834C118.237 17.6578 118.684 17.6322 119.273 17.6067C119.784 17.5811 120.437 17.5683 121.23 17.5683C122.048 17.5683 123.071 17.5555 124.299 17.5299C123.839 17.9904 123.481 18.4124 123.225 18.7961C123.097 19.0008 122.982 19.1798 122.88 19.3333C122.777 19.5891 122.739 20.1135 122.764 20.9064C122.764 21.5715 122.816 22.5563 122.918 23.8609C123.02 25.1399 123.212 26.8921 123.493 29.1175L118.39 29.8082L118.621 24.6283C118.032 26.0352 117.29 27.0839 116.395 27.7746C115.525 28.4652 114.694 28.9512 113.901 29.2326C112.955 29.5651 111.97 29.7186 110.947 29.693C109.616 29.5651 108.286 29.2582 106.956 28.7722C105.626 28.2862 104.449 27.5444 103.426 26.5467C102.403 25.5236 101.61 24.2062 101.047 22.5947C100.51 20.9832 100.344 18.988 100.548 16.6091C100.779 14.2302 101.341 12.1582 102.237 10.3932C103.158 8.60263 104.296 7.11902 105.652 5.94235C107.007 4.76569 108.529 3.88319 110.218 3.29486C111.931 2.68095 113.684 2.34841 115.474 2.29725ZM125.401 11.621C125.887 11.6466 126.322 11.6594 126.706 11.6594C127.115 11.6338 127.46 11.6082 127.742 11.5827C128.074 11.5571 128.369 11.5315 128.624 11.5059C129.008 11.4548 129.405 11.3908 129.814 11.3141C130.172 11.2629 130.543 11.199 130.927 11.1222C131.336 11.0199 131.732 10.9048 132.116 10.7769C131.962 11.1606 131.835 11.4931 131.732 11.7745C131.63 12.0559 131.553 12.2989 131.502 12.5035C131.425 12.7337 131.387 12.9256 131.387 13.0791C131.361 13.2581 131.349 13.4756 131.349 13.7314C131.323 14.1662 131.323 14.8696 131.349 15.8417C132.679 14.6906 133.791 13.7953 134.687 13.1558C135.608 12.5163 136.337 12.0175 136.874 11.6594C137.513 11.2501 138.012 10.9815 138.37 10.8536C139.317 10.7002 140.148 10.9176 140.864 11.5059C141.171 11.7617 141.465 12.107 141.747 12.5419C142.028 12.9512 142.271 13.5011 142.476 14.1918C142.68 14.8824 142.834 15.7138 142.936 16.6858C143.038 17.6322 143.051 18.7705 142.975 20.1007C142.437 20.1518 141.951 20.203 141.516 20.2542C141.107 20.3053 140.762 20.3437 140.481 20.3693C140.148 20.4204 139.841 20.446 139.56 20.446L138.524 20.5611C138.166 20.6123 137.718 20.6634 137.181 20.7146C136.669 20.7402 136.042 20.7913 135.301 20.8681C136.375 19.9984 137.066 19.2438 137.373 18.6043C137.705 17.9392 137.846 17.3892 137.795 16.9544C137.743 16.4684 137.513 16.0463 137.104 15.6882C136.618 15.4068 136.094 15.3045 135.531 15.3812C135.045 15.4324 134.482 15.6498 133.843 16.0335C133.203 16.4172 132.525 17.1334 131.809 18.1822C131.86 19.8193 131.911 21.175 131.962 22.2494C132.039 23.3237 132.103 24.1934 132.154 24.8585C132.231 25.6259 132.295 26.227 132.346 26.6619C132.423 27.0456 132.576 27.4548 132.807 27.8897C132.986 28.2478 133.241 28.6443 133.574 29.0791C133.907 29.514 134.341 29.9488 134.879 30.3837C133.753 30.3325 132.832 30.3325 132.116 30.3837C131.681 30.4093 131.297 30.4349 130.965 30.4604C130.607 30.5116 130.223 30.5628 129.814 30.6139C129.456 30.6651 129.034 30.7162 128.548 30.7674C128.087 30.8441 127.576 30.9209 127.013 30.9976C127.217 30.7162 127.384 30.3837 127.512 30C127.64 29.6419 127.742 29.2966 127.819 28.964C127.921 28.5803 127.998 28.1838 128.049 27.7746C128.074 27.4165 128.087 26.8793 128.087 26.1631C128.113 25.4468 128.1 24.6411 128.049 23.7458C128.023 22.8249 127.985 21.8785 127.934 20.9064C127.883 19.9088 127.819 18.9752 127.742 18.1055C127.665 17.2358 127.576 16.4812 127.473 15.8417C127.397 15.1766 127.307 14.7162 127.205 14.4604C127.077 14.1534 126.923 13.8465 126.744 13.5395C126.591 13.2581 126.399 12.964 126.169 12.657C125.938 12.3245 125.683 11.9791 125.401 11.621ZM154.36 12.8105C155.025 12.8105 155.715 12.9384 156.432 13.1942C157.148 13.4244 157.839 13.7314 158.504 14.115C159.169 14.4732 159.77 14.8696 160.307 15.3045C160.87 15.7138 161.33 16.1103 161.688 16.494C162.328 17.1846 162.763 18.1183 162.993 19.2949C163.249 20.446 163.3 21.6355 163.146 22.8633C162.993 24.0655 162.635 25.2038 162.072 26.2782C161.509 27.3525 160.729 28.1455 159.731 28.6571C159.015 29.0152 158.312 29.2966 157.621 29.5012C156.93 29.7058 156.265 29.8593 155.626 29.9616C154.986 30.0639 154.385 30.1151 153.823 30.1151C153.26 30.1151 152.774 30.1023 152.364 30.0767C151.597 30.0256 150.791 29.757 149.947 29.271C149.129 28.785 148.348 28.1838 147.607 27.4676C146.89 26.7514 146.277 25.9712 145.765 25.1271C145.253 24.2574 144.946 23.4388 144.844 22.6714C144.691 21.6227 144.665 20.5227 144.767 19.3717C144.87 18.2206 145.241 17.159 145.88 16.187C146.545 15.215 147.543 14.4092 148.873 13.7697C150.229 13.1302 152.058 12.8105 154.36 12.8105ZM153.094 27.6978C153.375 27.749 153.759 27.685 154.245 27.506C154.731 27.3013 155.204 26.9816 155.664 26.5467C156.15 26.1119 156.572 25.5619 156.93 24.8969C157.314 24.2062 157.544 23.3749 157.621 22.4028C157.698 21.4564 157.698 20.5867 157.621 19.7937C157.57 19.0008 157.455 18.3101 157.276 17.7218C157.097 17.1079 156.892 16.6091 156.662 16.2254C156.432 15.8417 156.189 15.5731 155.933 15.4196C155.498 15.1894 154.974 15.0103 154.36 14.8824C153.746 14.729 153.221 14.7545 152.787 14.9592C152.582 15.0615 152.326 15.2789 152.019 15.6115C151.712 15.944 151.405 16.3661 151.098 16.8776C150.791 17.3637 150.51 17.9264 150.254 18.5659C150.024 19.2054 149.858 19.8705 149.755 20.5611C149.653 21.2518 149.627 21.9936 149.679 22.7865C149.755 23.5795 149.922 24.3341 150.177 25.0503C150.433 25.741 150.791 26.3421 151.252 26.8537C151.738 27.3397 152.352 27.6211 153.094 27.6978ZM185.927 16.3788C185.62 16.3277 185.237 16.2893 184.776 16.2637C184.341 16.2382 183.919 16.2254 183.51 16.2254C183.049 16.2254 182.563 16.2382 182.052 16.2637C181.515 16.2893 180.978 16.3149 180.44 16.3405C179.98 16.3661 179.456 16.4044 178.867 16.4556C178.304 16.4812 177.754 16.5195 177.217 16.5707C177.422 16.4684 177.601 16.3277 177.754 16.1486C177.934 15.9696 178.087 15.7905 178.215 15.6115C178.343 15.4068 178.458 15.1894 178.56 14.9592C178.688 14.5755 178.675 14.115 178.522 13.5779C178.368 13.0151 178.087 12.5035 177.678 12.0431C177.294 11.5827 176.795 11.2245 176.181 10.9688C175.593 10.6874 174.941 10.6234 174.225 10.7769C173.457 10.956 172.766 11.2245 172.153 11.5827C171.564 11.9408 171.065 12.4396 170.656 13.0791C170.272 13.693 169.991 14.4604 169.812 15.3812C169.659 16.2765 169.62 17.3509 169.697 18.6043C169.799 20.1646 170.055 21.4052 170.464 22.3261C170.874 23.247 171.372 23.9376 171.961 24.3981C172.549 24.8585 173.189 25.1399 173.879 25.2422C174.595 25.3189 175.299 25.3189 175.99 25.2422C176.476 25.1399 176.923 24.9224 177.332 24.5899C177.665 24.3085 177.972 23.8993 178.253 23.3621C178.535 22.8249 178.663 22.0831 178.637 21.1367L183.318 20.9448C182.781 22.454 182.129 23.6563 181.361 24.5515C180.594 25.4212 179.852 26.0991 179.136 26.5851C178.292 27.1479 177.448 27.5316 176.603 27.7362C175.555 27.9153 174.621 27.992 173.802 27.9664C172.984 27.9153 172.242 27.7874 171.577 27.5827C170.912 27.3781 170.298 27.1223 169.735 26.8153C169.173 26.5084 168.635 26.1758 168.124 25.8177C167.791 25.5875 167.42 25.2038 167.011 24.6666C166.602 24.1295 166.218 23.49 165.86 22.7482C165.502 21.9808 165.208 21.1367 164.977 20.2158C164.747 19.2949 164.658 18.3485 164.709 17.3764C164.76 16.3788 164.99 15.3812 165.4 14.3836C165.809 13.386 166.461 12.4268 167.356 11.5059C168.712 10.1246 170.157 9.22934 171.692 8.82006C173.252 8.38521 174.723 8.2701 176.105 8.47474C177.486 8.65379 178.714 9.05028 179.788 9.66419C180.862 10.2781 181.617 10.9432 182.052 11.6594C182.487 12.3756 182.806 12.9256 183.011 13.3093C183.241 13.6674 183.408 13.9488 183.51 14.1534C183.638 14.3325 183.74 14.4732 183.817 14.5755C183.919 14.6522 184.06 14.7673 184.239 14.9208C184.367 15.0487 184.52 15.1894 184.699 15.3429C184.853 15.4708 185.032 15.6242 185.237 15.8033C185.441 15.9824 185.671 16.1742 185.927 16.3788ZM194.818 23.8225C195.535 23.8225 196.2 23.7458 196.814 23.5923C197.325 23.4644 197.811 23.2598 198.272 22.9784C198.758 22.6714 199.077 22.2238 199.231 21.6355C199.742 21.7378 200.177 21.8273 200.535 21.904C200.894 21.9552 201.2 22.0064 201.456 22.0575C201.738 22.1343 201.981 22.1854 202.185 22.211C202.39 22.2622 202.633 22.3133 202.914 22.3645C203.17 22.4156 203.477 22.4796 203.835 22.5563C204.219 22.6075 204.666 22.6842 205.178 22.7865C204.794 22.7354 204.398 22.7738 203.989 22.9017C203.605 23.0295 203.234 23.1702 202.876 23.3237C202.467 23.5028 202.083 23.7202 201.725 23.976C201.495 24.1295 201.226 24.3597 200.919 24.6666C200.638 24.9736 200.228 25.2678 199.691 25.5491C199.154 25.8305 198.438 26.0735 197.543 26.2782C196.673 26.4572 195.547 26.5212 194.166 26.47C192.503 26.4189 191.109 26.1247 189.984 25.5875C188.858 25.0248 187.95 24.3469 187.26 23.5539C186.569 22.7354 186.07 21.8529 185.763 20.9064C185.456 19.96 185.29 19.0775 185.264 18.2589C185.239 17.4404 185.482 16.5835 185.993 15.6882C186.505 14.7929 187.221 13.9744 188.142 13.2325C189.089 12.4907 190.227 11.8896 191.557 11.4292C192.887 10.9432 194.345 10.7002 195.931 10.7002C196.852 10.7002 197.696 10.8153 198.463 11.0455C199.256 11.2501 199.973 11.5315 200.612 11.8896C201.277 12.2477 201.853 12.657 202.339 13.1174C202.825 13.5523 203.234 13.9999 203.567 14.4604C203.899 14.9464 204.18 15.458 204.411 15.9951C204.615 16.4556 204.782 16.98 204.91 17.5683C205.037 18.1566 205.076 18.7577 205.025 19.3717C203.081 19.4228 201.507 19.4612 200.305 19.4868C199.129 19.5123 198.208 19.5251 197.543 19.5251H195.816H194.511C194.051 19.5251 193.45 19.5379 192.708 19.5635C191.966 19.5891 191.058 19.6275 189.984 19.6786C190.112 20.7018 190.431 21.4948 190.943 22.0575C191.48 22.5947 192.043 23.004 192.631 23.2853C193.296 23.5923 194.025 23.7714 194.818 23.8225ZM191.365 16.916C192.184 16.9672 192.861 17.0055 193.399 17.0311C193.961 17.0567 194.422 17.0823 194.78 17.1079C195.164 17.1334 195.471 17.1462 195.701 17.1462H196.66C197.3 17.1462 198.489 17.1079 200.228 17.0311C200.152 15.9056 199.909 15.0487 199.499 14.4604C199.116 13.872 198.706 13.4372 198.272 13.1558C197.76 12.8489 197.197 12.6698 196.583 12.6186C194.921 12.6442 193.68 12.9895 192.861 13.6546C192.069 14.3197 191.57 15.4068 191.365 16.916ZM205.666 11.621C206.152 11.6466 206.587 11.6594 206.971 11.6594C207.38 11.6338 207.725 11.6082 208.007 11.5827C208.339 11.5571 208.634 11.5315 208.889 11.5059C209.273 11.4548 209.67 11.3908 210.079 11.3141C210.437 11.2629 210.808 11.199 211.192 11.1222C211.601 11.0199 211.997 10.9048 212.381 10.7769C212.227 11.1606 212.1 11.4931 211.997 11.7745C211.895 12.0559 211.818 12.2989 211.767 12.5035C211.69 12.7337 211.652 12.9256 211.652 13.0791C211.626 13.2581 211.614 13.4756 211.614 13.7314C211.588 14.1662 211.588 14.8696 211.614 15.8417C212.944 14.6906 214.056 13.7953 214.952 13.1558C215.873 12.5163 216.602 12.0175 217.139 11.6594C217.778 11.2501 218.277 10.9815 218.635 10.8536C219.582 10.7002 220.413 10.9176 221.129 11.5059C221.436 11.7617 221.73 12.107 222.012 12.5419C222.293 12.9512 222.536 13.5011 222.741 14.1918C222.945 14.8824 223.099 15.7138 223.201 16.6858C223.303 17.6322 223.316 18.7705 223.24 20.1007C222.702 20.1518 222.216 20.203 221.781 20.2542C221.372 20.3053 221.027 20.3437 220.746 20.3693C220.413 20.4204 220.106 20.446 219.825 20.446L218.789 20.5611C218.431 20.6123 217.983 20.6634 217.446 20.7146C216.934 20.7402 216.307 20.7913 215.566 20.8681C216.64 19.9984 217.331 19.2438 217.638 18.6043C217.97 17.9392 218.111 17.3892 218.06 16.9544C218.008 16.4684 217.778 16.0463 217.369 15.6882C216.883 15.4068 216.359 15.3045 215.796 15.3812C215.31 15.4324 214.747 15.6498 214.108 16.0335C213.468 16.4172 212.79 17.1334 212.074 18.1822C212.125 19.8193 212.176 21.175 212.227 22.2494C212.304 23.3237 212.368 24.1934 212.419 24.8585C212.496 25.6259 212.56 26.227 212.611 26.6619C212.688 27.0456 212.841 27.4548 213.072 27.8897C213.251 28.2478 213.506 28.6443 213.839 29.0791C214.172 29.514 214.606 29.9488 215.144 30.3837C214.018 30.3325 213.097 30.3325 212.381 30.3837C211.946 30.4093 211.562 30.4349 211.23 30.4604C210.872 30.5116 210.488 30.5628 210.079 30.6139C209.721 30.6651 209.299 30.7162 208.813 30.7674C208.352 30.8441 207.841 30.9209 207.278 30.9976C207.482 30.7162 207.649 30.3837 207.777 30C207.905 29.6419 208.007 29.2966 208.084 28.964C208.186 28.5803 208.263 28.1838 208.314 27.7746C208.339 27.4165 208.352 26.8793 208.352 26.1631C208.378 25.4468 208.365 24.6411 208.314 23.7458C208.288 22.8249 208.25 21.8785 208.199 20.9064C208.148 19.9088 208.084 18.9752 208.007 18.1055C207.93 17.2358 207.841 16.4812 207.738 15.8417C207.662 15.1766 207.572 14.7162 207.47 14.4604C207.342 14.1534 207.188 13.8465 207.009 13.5395C206.856 13.2581 206.664 12.964 206.434 12.657C206.203 12.3245 205.948 11.9791 205.666 11.621ZM224.342 12.8489L231.402 12.9256C230.992 14.486 230.685 15.8161 230.481 16.916C230.302 18.0159 230.187 18.9368 230.135 19.6786C230.033 20.5227 230.008 21.239 230.059 21.8273C230.135 22.3645 230.263 22.94 230.442 23.5539C230.596 24.0655 230.826 24.6539 231.133 25.3189C231.44 25.984 231.849 26.6491 232.361 27.3141C232.054 27.2118 231.721 27.1351 231.363 27.0839C231.005 27.0328 230.673 26.9944 230.366 26.9688C230.008 26.9432 229.649 26.9432 229.291 26.9688C228.933 26.9944 228.537 27.0328 228.102 27.0839C227.744 27.1351 227.309 27.199 226.797 27.2758C226.286 27.3525 225.749 27.4548 225.186 27.5827C225.569 26.4316 225.864 25.434 226.068 24.5899C226.299 23.7458 226.465 23.0423 226.567 22.4796C226.669 21.8145 226.733 21.2773 226.759 20.8681C226.759 20.3565 226.759 19.7809 226.759 19.1414C226.759 18.4764 226.759 17.8369 226.759 17.223C226.759 16.6091 226.746 16.0719 226.721 15.6115C226.695 15.1254 226.644 14.8185 226.567 14.6906L226.183 14.3069C226.03 14.179 225.8 13.9999 225.493 13.7697C225.211 13.5139 224.828 13.207 224.342 12.8489ZM227.066 6.93996C227.603 6.65858 228.14 6.58184 228.677 6.70974C229.24 6.83764 229.675 7.08065 229.982 7.43876C230.289 7.79688 230.391 8.21894 230.289 8.70495C230.212 9.19097 229.803 9.66419 229.061 10.1246C228.319 10.5595 227.667 10.713 227.104 10.5851C226.542 10.4572 226.145 10.1886 225.915 9.7793C225.685 9.37002 225.646 8.8968 225.8 8.35963C225.953 7.79688 226.375 7.32365 227.066 6.93996ZM243.209 23.8225C243.925 23.8225 244.59 23.7458 245.204 23.5923C245.716 23.4644 246.202 23.2598 246.662 22.9784C247.148 22.6714 247.468 22.2238 247.621 21.6355C248.133 21.7378 248.568 21.8273 248.926 21.904C249.284 21.9552 249.591 22.0064 249.847 22.0575C250.128 22.1343 250.371 22.1854 250.576 22.211C250.78 22.2622 251.023 22.3133 251.305 22.3645C251.561 22.4156 251.868 22.4796 252.226 22.5563C252.609 22.6075 253.057 22.6842 253.569 22.7865C253.185 22.7354 252.788 22.7738 252.379 22.9017C251.995 23.0295 251.625 23.1702 251.266 23.3237C250.857 23.5028 250.473 23.7202 250.115 23.976C249.885 24.1295 249.617 24.3597 249.31 24.6666C249.028 24.9736 248.619 25.2678 248.082 25.5491C247.545 25.8305 246.828 26.0735 245.933 26.2782C245.063 26.4572 243.938 26.5212 242.557 26.47C240.894 26.4189 239.5 26.1247 238.374 25.5875C237.249 25.0248 236.341 24.3469 235.65 23.5539C234.959 22.7354 234.461 21.8529 234.154 20.9064C233.847 19.96 233.68 19.0775 233.655 18.2589C233.629 17.4404 233.872 16.5835 234.384 15.6882C234.895 14.7929 235.612 13.9744 236.533 13.2325C237.479 12.4907 238.617 11.8896 239.947 11.4292C241.278 10.9432 242.736 10.7002 244.322 10.7002C245.242 10.7002 246.087 10.8153 246.854 11.0455C247.647 11.2501 248.363 11.5315 249.003 11.8896C249.668 12.2477 250.243 12.657 250.729 13.1174C251.215 13.5523 251.625 13.9999 251.957 14.4604C252.29 14.9464 252.571 15.458 252.801 15.9951C253.006 16.4556 253.172 16.98 253.3 17.5683C253.428 18.1566 253.466 18.7577 253.415 19.3717C251.471 19.4228 249.898 19.4612 248.696 19.4868C247.519 19.5123 246.598 19.5251 245.933 19.5251H244.206H242.902C242.441 19.5251 241.84 19.5379 241.099 19.5635C240.357 19.5891 239.449 19.6275 238.374 19.6786C238.502 20.7018 238.822 21.4948 239.334 22.0575C239.871 22.5947 240.433 23.004 241.022 23.2853C241.687 23.5923 242.416 23.7714 243.209 23.8225ZM239.756 16.916C240.574 16.9672 241.252 17.0055 241.789 17.0311C242.352 17.0567 242.812 17.0823 243.171 17.1079C243.554 17.1334 243.861 17.1462 244.091 17.1462H245.051C245.69 17.1462 246.88 17.1079 248.619 17.0311C248.542 15.9056 248.299 15.0487 247.89 14.4604C247.506 13.872 247.097 13.4372 246.662 13.1558C246.151 12.8489 245.588 12.6698 244.974 12.6186C243.311 12.6442 242.071 12.9895 241.252 13.6546C240.459 14.3197 239.96 15.4068 239.756 16.916ZM271.361 8.09104C271.131 8.65379 270.927 9.16539 270.748 9.62582C270.594 10.0863 270.453 10.4955 270.326 10.8536C270.198 11.2629 270.083 11.621 269.98 11.928C269.878 12.2861 269.763 12.6954 269.635 13.1558C269.507 13.5651 269.341 14.0767 269.136 14.6906C268.957 15.2789 268.74 15.9824 268.484 16.8009C268.279 15.5731 267.908 14.6011 267.371 13.8848C266.834 13.143 266.284 12.5675 265.721 12.1582C265.056 11.6978 264.34 11.3652 263.572 11.1606C262.191 10.9304 261.194 10.956 260.58 11.2373C259.966 11.5187 259.556 11.8768 259.352 12.3117C259.25 12.4907 259.134 12.721 259.007 13.0023C258.904 13.2581 258.815 13.5267 258.738 13.8081C258.687 14.0895 258.674 14.3708 258.7 14.6522C258.725 14.9336 258.84 15.1638 259.045 15.3429C259.173 15.4708 259.505 15.6498 260.043 15.88C260.58 16.0847 261.219 16.3277 261.961 16.6091C262.728 16.8649 263.534 17.1462 264.378 17.4532C265.248 17.7601 266.067 18.0671 266.834 18.3741C267.601 18.681 268.266 18.988 268.829 19.2949C269.392 19.6019 269.763 19.8833 269.942 20.1391C270.095 20.3948 270.262 20.7402 270.441 21.175C270.645 21.5843 270.786 22.0447 270.863 22.5563C270.965 23.0423 270.991 23.5539 270.939 24.0911C270.914 24.6027 270.773 25.1143 270.517 25.6259C270.262 26.1375 269.852 26.6107 269.29 27.0456C268.752 27.4804 268.023 27.8385 267.102 28.1199C266.028 28.4524 264.992 28.542 263.995 28.3885C262.997 28.235 262.076 28.0048 261.232 27.6978C260.413 27.3909 259.697 27.0967 259.083 26.8153C258.469 26.5084 258.035 26.3805 257.779 26.4316C257.497 26.4828 257.178 26.6235 256.819 26.8537C256.461 27.0839 256.116 27.3269 255.783 27.5827C255.477 27.8129 255.208 28.0304 254.978 28.235C254.748 28.4141 254.632 28.478 254.632 28.4269C254.632 28.3757 254.671 28.2222 254.748 27.9664C254.85 27.7106 254.952 27.4037 255.054 27.0456C255.182 26.6619 255.297 26.2526 255.4 25.8177C255.528 25.3573 255.617 24.9224 255.668 24.5132C255.72 24.1806 255.783 23.7714 255.86 23.2853C255.911 22.8505 255.975 22.3261 256.052 21.7122C256.154 21.0727 256.27 20.3053 256.397 19.41C256.525 20.0751 256.704 20.6506 256.935 21.1367C257.19 21.6227 257.433 22.0447 257.664 22.4028C257.945 22.8121 258.214 23.1574 258.469 23.4388C258.853 23.7969 259.301 24.1295 259.812 24.4364C260.349 24.7434 260.887 25.012 261.424 25.2422C261.961 25.4468 262.473 25.5747 262.959 25.6259C263.445 25.677 263.854 25.6259 264.186 25.4724C264.519 25.3189 264.8 25.0376 265.031 24.6283C265.286 24.219 265.465 23.7714 265.568 23.2853C265.67 22.7993 265.708 22.3389 265.683 21.904C265.657 21.4436 265.542 21.0727 265.337 20.7913C265.184 20.6123 264.826 20.3821 264.263 20.1007C263.726 19.8193 263.074 19.5123 262.306 19.1798C261.564 18.8473 260.772 18.502 259.927 18.1438C259.109 17.7857 258.329 17.4276 257.587 17.0695C256.871 16.6858 256.27 16.3277 255.783 15.9951C255.323 15.637 255.067 15.3173 255.016 15.0359C254.965 14.6266 254.927 14.179 254.901 13.693C254.875 13.1814 254.901 12.6826 254.978 12.1966C255.08 11.685 255.259 11.199 255.515 10.7385C255.796 10.2781 256.206 9.89441 256.743 9.58745C257.101 9.38281 257.574 9.22934 258.162 9.12702C258.751 9.0247 259.403 8.97354 260.119 8.97354C260.835 8.94796 261.577 8.97354 262.345 9.05028C263.112 9.10144 263.841 9.17818 264.532 9.28049C265.248 9.35723 265.887 9.45955 266.45 9.58745C267.039 9.71535 267.486 9.83046 267.793 9.93278C268.151 10.0607 268.535 10.0735 268.944 9.97114C269.302 9.89441 269.686 9.72814 270.095 9.47234C270.505 9.21655 270.927 8.75611 271.361 8.09104Z" fill="url(#paint0_linear_57_3623)"/>
<defs>
<linearGradient id="paint0_linear_57_3623" x1="331.836" y1="56" x2="136.586" y2="-162.71" gradientUnits="userSpaceOnUse">
<stop stop-color="#270096"/>
<stop offset="1" stop-color="#EA00B7"/>
</linearGradient>
</defs>
</svg>
