<svg width="28" height="24" viewBox="0 0 28 24" fill="none" xmlns="http://www.w3.org/2000/svg">
<path d="M24.2137 1.31953C20.6937 -1.08047 16.347 0.0395295 14.0003 2.7862C11.6537 0.0395295 7.30699 -1.0938 3.78699 1.31953C1.92033 2.59953 0.746992 4.75953 0.666992 7.03953C0.480325 12.2129 5.06699 16.3595 12.067 22.7195L12.2003 22.8395C13.2137 23.7595 14.7737 23.7595 15.787 22.8262L15.9337 22.6929C22.9337 16.3462 27.507 12.1995 27.3337 7.0262C27.2537 4.75953 26.0803 2.59953 24.2137 1.31953ZM14.1337 20.7329L14.0003 20.8662L13.867 20.7329C7.52032 14.9862 3.33366 11.1862 3.33366 7.33286C3.33366 4.6662 5.33366 2.6662 8.00032 2.6662C10.0537 2.6662 12.0537 3.9862 12.7603 5.81286H15.2537C15.947 3.9862 17.947 2.6662 20.0003 2.6662C22.667 2.6662 24.667 4.6662 24.667 7.33286C24.667 11.1862 20.4803 14.9862 14.1337 20.7329Z" fill="url(#paint0_linear_80_317)"/>
<defs>
<linearGradient id="paint0_linear_80_317" x1="33.1516" y1="31.3709" x2="-8.23576" y2="22.0265" gradientUnits="userSpaceOnUse">
<stop stop-color="#270096"/>
<stop offset="1" stop-color="#EA00B7"/>
</linearGradient>
</defs>
</svg>
